<?xml version="1.0" encoding="UTF-8"?>
<svg xmlns="http://www.w3.org/2000/svg" xmlns:xlink="http://www.w3.org/1999/xlink" width="22pt" height="22pt" viewBox="0 0 22 22" version="1.1">
<defs>
<linearGradient id="linear0" gradientUnits="userSpaceOnUse" x1="0.12959" y1="0.12039" x2="0.79639" y2="0.78201" gradientTransform="matrix(15.83745,0,0,16.235385,0.0114103,0.00811566)">
<stop offset="0" style="stop-color:rgb(21.960784%,49.411765%,72.156863%);stop-opacity:1;"/>
<stop offset="1" style="stop-color:rgb(21.176471%,41.176471%,58.039216%);stop-opacity:1;"/>
</linearGradient>
<linearGradient id="linear1" gradientUnits="userSpaceOnUse" x1="0.19128" y1="0.20579" x2="0.90742" y2="0.88429" gradientTransform="matrix(15.83745,0,0,16.239442,5.541586,5.50242)">
<stop offset="0" style="stop-color:rgb(100%,87.843137%,32.156863%);stop-opacity:1;"/>
<stop offset="1" style="stop-color:rgb(100%,76.470588%,19.215686%);stop-opacity:1;"/>
</linearGradient>
</defs>
<g id="surface1">
<path style=" stroke:none;fill-rule:nonzero;fill:url(#linear0);" d="M 10.621094 0.0078125 C 5.195312 0.0078125 5.535156 2.410156 5.535156 2.410156 L 5.539062 4.902344 L 10.710938 4.902344 L 10.710938 5.652344 L 3.484375 5.652344 C 3.484375 5.652344 0.0117188 5.253906 0.0117188 10.847656 C 0.0117188 16.441406 3.042969 16.242188 3.042969 16.242188 L 4.847656 16.242188 L 4.847656 13.644531 C 4.847656 13.644531 4.75 10.546875 7.832031 10.546875 L 12.964844 10.546875 C 12.964844 10.546875 15.851562 10.597656 15.851562 7.695312 L 15.851562 2.902344 C 15.851562 2.902344 16.289062 0.0078125 10.621094 0.0078125 Z M 7.765625 1.679688 C 8.007812 1.679688 8.25 1.78125 8.421875 1.960938 C 8.601562 2.136719 8.695312 2.382812 8.695312 2.632812 C 8.695312 2.886719 8.601562 3.125 8.421875 3.308594 C 8.25 3.488281 8.007812 3.585938 7.765625 3.585938 C 7.515625 3.585938 7.277344 3.488281 7.105469 3.308594 C 6.929688 3.125 6.835938 2.886719 6.835938 2.632812 C 6.835938 2.382812 6.929688 2.136719 7.105469 1.960938 C 7.277344 1.78125 7.515625 1.679688 7.765625 1.679688 Z M 7.765625 1.679688 "/>
<path style=" stroke:none;fill-rule:nonzero;fill:url(#linear1);" d="M 10.773438 21.742188 C 16.199219 21.742188 15.863281 19.335938 15.863281 19.335938 L 15.855469 16.84375 L 10.675781 16.84375 L 10.675781 16.09375 L 17.90625 16.09375 C 17.90625 16.09375 21.378906 16.5 21.378906 10.898438 C 21.378906 5.300781 18.351562 5.5 18.351562 5.5 L 16.539062 5.5 L 16.539062 8.097656 C 16.539062 8.097656 16.640625 11.199219 13.558594 11.199219 L 8.421875 11.199219 C 8.421875 11.199219 5.542969 11.152344 5.542969 14.050781 L 5.542969 18.839844 C 5.542969 18.839844 5.105469 21.742188 10.773438 21.742188 Z M 13.628906 20.066406 C 13.378906 20.066406 13.144531 19.964844 12.96875 19.785156 C 12.792969 19.609375 12.695312 19.363281 12.695312 19.113281 C 12.695312 18.859375 12.792969 18.617188 12.96875 18.4375 C 13.144531 18.261719 13.378906 18.15625 13.628906 18.15625 C 13.875 18.15625 14.109375 18.261719 14.285156 18.4375 C 14.460938 18.617188 14.5625 18.859375 14.5625 19.113281 C 14.5625 19.363281 14.460938 19.609375 14.285156 19.785156 C 14.109375 19.964844 13.875 20.066406 13.628906 20.066406 Z M 13.628906 20.066406 "/>
</g>
</svg>
